# File created by Blade
# Date/Time:  Tue Jan 27 20:02:37 2015
# Frame Rate: 120.000 fps
#------------------------------------------------------
:FULLY-SPECIFIED
:DEGREES
3562
root 6.230962 33.770001 3.395547 32.698290 -21.832520 -26.172307
Spine 0.599187 21.410174 -1.252817
Head -22.925174 1.996890 5.950172
LeftShoulder -14.178979 -3.188969 29.512839
LeftArm -9.761891 -33.059125 -73.717516
LeftForeArm -48.499092 -0.000000 136.542710
LeftHand 7.736061 -0.000000 -42.785401
LeftHandThumb1 -26.253704 0.000000 33.147579
RightShoulder -9.273115 -4.143802 -25.333900
RightArm 33.420384 -53.057148 79.593446
RightForeArm -17.452541 -0.000000 18.539040
RightHand 16.457492 -0.000000 12.170694
RightHandThumb1 -24.326973 -0.000000 -32.862282
LeftUpLeg -14.146528 20.245055 9.716452
LeftLeg -8.883978 -0.000000 0.000000
LeftFoot -17.409420 26.190768 -16.696606
LeftToeBase 18.899206 -0.000000 -0.000000
RightUpLeg 27.952083 -46.828706 -44.951359
RightLeg 102.036322 -0.000000 -0.000000
RightFoot 32.104341 -25.085506 29.067934
RightToeBase 17.313964 -0.000000 -0.000000
3563
root 6.234094 33.768720 3.397212 32.675270 -21.832110 -26.181928
Spine 0.614043 21.367419 -1.260510
Head -22.772240 1.937195 5.997050
LeftShoulder -14.115642 -3.230564 29.571332
LeftArm -9.804700 -33.065602 -73.725506
LeftForeArm -48.470019 -0.000000 136.563782
LeftHand 7.723690 -0.000000 -42.778692
LeftHandThumb1 -26.253704 0.000000 33.147579
RightShoulder -9.280612 -4.189519 -25.319368
RightArm 33.567335 -53.070884 79.434685
RightForeArm -17.452080 0.000000 18.545356
RightHand 16.461247 -0.000000 12.199020
RightHandThumb1 -24.326973 -0.000000 -32.862282
LeftUpLeg -14.121281 20.199009 9.739614
LeftLeg -8.871766 -0.000000 0.000000
LeftFoot -17.435587 26.247640 -16.682907
LeftToeBase 18.939278 -0.000000 -0.000000
RightUpLeg 27.911080 -46.815084 -44.837139
RightLeg 101.280420 -0.000000 -0.000000
RightFoot 31.954051 -25.275147 29.329864
RightToeBase 17.098531 -0.000000 -0.000000
3564
root 6.239166 33.767837 3.398904 32.649744 -21.842149 -26.190206
Spine 0.648167 21.332222 -1.262295
Head -22.654643 1.909097 6.023183
LeftShoulder -14.077285 -3.260243 29.624188
LeftArm -9.818037 -33.074971 -73.779213
LeftForeArm -48.458475 0.000000 136.552086
LeftHand 7.711152 -0.000000 -42.770202
LeftHandThumb1 -26.253704 0.000000 33.147579
RightShoulder -9.301173 -4.217140 -25.316165
RightArm 33.711881 -53.105917 79.279624
RightForeArm -17.461332 -0.000000 18.548105
RightHand 16.496175 0.000000 12.179115
RightHandThumb1 -24.326973 -0.000000 -32.862282
LeftUpLeg -14.093495 20.156455 9.756138
LeftLeg -8.853205 -0.000000 0.000000
LeftFoot -17.467379 26.294143 -16.679349
LeftToeBase 18.976235 -0.000000 -0.000000
RightUpLeg 27.874938 -46.785847 -44.747649
RightLeg 100.495408 -0.000000 -0.000000
RightFoot 31.929703 -25.332847 29.396027
RightToeBase 16.824007 -0.000000 -0.000000
3565
root 6.246055 33.766779 3.400505 32.635004 -21.856098 -26.186600
Spine 0.666496 21.283247 -1.279595
Head -22.546237 1.895435 6.035320
LeftShoulder -14.028379 -3.285051 29.672437
LeftArm -9.872446 -33.119523 -73.785774
LeftForeArm -48.503603 -0.000000 136.542437
LeftHand 7.696734 0.000000 -42.776414
LeftHandThumb1 -26.253704 0.000000 33.147579
RightShoulder -9.310862 -4.209471 -25.325317
RightArm 33.784759 -53.137335 79.193873
RightForeArm -17.494016 0.000000 18.550631
RightHand 16.475043 -0.000000 12.153791
RightHandThumb1 -24.326973 -0.000000 -32.862282
LeftUpLeg -14.082454 20.111077 9.755174
LeftLeg -8.835584 -0.000000 0.000000
LeftFoot -17.483330 26.341738 -16.674635
LeftToeBase 18.981784 -0.000000 -0.000000
RightUpLeg 27.835968 -46.757112 -44.672858
RightLeg 99.695870 -0.000000 -0.000000
RightFoot 31.914077 -25.244244 29.377539
RightToeBase 16.712246 -0.000000 -0.000000
3566
root 6.254792 33.765463 3.403387 32.616087 -21.888331 -26.168784
Spine 0.685378 21.248407 -1.311134
Head -22.434522 1.874247 6.030698
LeftShoulder -13.980442 -3.285482 29.705264
LeftArm -9.880003 -33.166794 -73.813973
LeftForeArm -48.550445 -0.000000 136.515520
LeftHand 7.706857 -0.000000 -42.785546
LeftHandThumb1 -26.253704 0.000000 33.147579
RightShoulder -9.330047 -4.198481 -25.344665
RightArm 33.855086 -53.185438 79.114446
RightForeArm -17.484999 0.000000 18.542943
RightHand 16.442813 -0.000000 12.118973
RightHandThumb1 -24.326973 -0.000000 -32.862282
LeftUpLeg -14.065978 20.056259 9.740947
LeftLeg -8.806457 -0.000000 0.000000
LeftFoot -17.528282 26.368701 -16.718118
LeftToeBase 18.967981 -0.000000 -0.000000
RightUpLeg 27.795363 -46.719416 -44.628599
RightLeg 98.850631 -0.000000 -0.000000
RightFoot 31.952852 -25.195681 29.336582
RightToeBase 16.469912 -0.000000 -0.000000
3567
root 6.263903 33.765730 3.405885 32.608546 -21.925488 -26.173421
Spine 0.709935 21.213722 -1.322882
Head -22.352064 1.865243 6.022389
LeftShoulder -13.962169 -3.295214 29.711002
LeftArm -9.906825 -33.186408 -73.787559
LeftForeArm -48.569601 -0.000000 136.498751
LeftHand 7.722289 -0.000000 -42.684821
LeftHandThumb1 -26.253704 0.000000 33.147579
RightShoulder -9.338505 -4.209687 -25.356458
RightArm 33.940095 -53.191415 79.030785
RightForeArm -17.499546 -0.000000 18.532255
RightHand 16.406658 -0.000000 12.123221
RightHandThumb1 -24.326973 -0.000000 -32.862282
LeftUpLeg -14.047367 20.054641 9.726305
LeftLeg -8.797698 -0.000000 0.000000
LeftFoot -17.526902 26.380241 -16.711103
LeftToeBase 18.997668 -0.000000 -0.000000
RightUpLeg 27.738270 -46.685123 -44.558218
RightLeg 97.952375 -0.000000 -0.000000
RightFoot 31.943751 -25.195344 29.316889
RightToeBase 16.759898 -0.000000 -0.000000
